<?xml version="1.0" encoding="UTF-8"?>
<svg xmlns:xlink="http://www.w3.org/1999/xlink" xmlns="http://www.w3.org/2000/svg" fill-opacity="1" color-rendering="auto" color-interpolation="auto" text-rendering="auto" stroke="black" stroke-linecap="square" width="1277" stroke-miterlimit="10" shape-rendering="auto" stroke-opacity="1" fill="black" stroke-dasharray="none" font-weight="normal" stroke-width="1" height="739" font-family="'Dialog'" font-style="normal" stroke-linejoin="miter" font-size="12" stroke-dashoffset="0" image-rendering="auto">
<!--Generated by ySVG-->
<defs id="genericDefs"/>
<g>
<defs id="defs1">
<clipPath clipPathUnits="userSpaceOnUse" id="clipPath1">
<path d="M0 0 L1277 0 L1277 739 L0 739 L0 0 Z"/>
</clipPath>
<clipPath clipPathUnits="userSpaceOnUse" id="clipPath2">
<path d="M-27 259 L1250 259 L1250 998 L-27 998 L-27 259 Z"/>
</clipPath>
</defs>
<g fill="white" transform="translate(27,-259)" stroke="white">
<rect x="-27" width="1277" height="739" y="259" clip-path="url(#clipPath2)" stroke="none"/>
</g>
<g fill="rgb(180,180,180)" stroke-miterlimit="1.45" stroke-width="0.75" transform="matrix(1,0,0,1,27,-259)" stroke="rgb(180,180,180)">
<path fill="none" d="M372.3118 772.9215 L520.572 563.4531" clip-path="url(#clipPath2)"/>
<path fill="none" d="M353.0589 795.7911 L244.0669 905.1846" clip-path="url(#clipPath2)"/>
<path fill="none" d="M1124.6366 493.0569 L994.3652 606.7503" stroke-width="1.2231" clip-path="url(#clipPath2)"/>
<path fill="none" d="M256.9445 654.2377 L132.7517 720.2266" clip-path="url(#clipPath2)"/>
<path fill="none" d="M284.2562 641.9874 L515.1724 556.4215" clip-path="url(#clipPath2)"/>
<path fill="none" d="M750.9514 401.7508 L541.6757 542.8251" clip-path="url(#clipPath2)"/>
<path fill="none" d="M703.2199 348.2018 L538.9988 539.8201" stroke-width="10.091" clip-path="url(#clipPath2)"/>
<path fill="none" d="M711.0276 438.4846 L541.9858 543.3047" stroke-width="1.2231" clip-path="url(#clipPath2)"/>
<path fill="none" d="M772.6129 488.6737 L543.7659 547.4766" stroke-width="6.4215" clip-path="url(#clipPath2)"/>
<path fill="none" d="M818.3379 530.4542 L979.369 518.288" stroke-width="26.6667" clip-path="url(#clipPath2)"/>
<path fill="none" d="M788.4188 532.6553 L544.1995 550.1385" clip-path="url(#clipPath2)"/>
<path fill="none" d="M468.8701 734.1355 L524.537 565.454" stroke-width="4.8926" clip-path="url(#clipPath2)"/>
<path fill="none" d="M476.5584 756.8361 L724.3719 925.981" clip-path="url(#clipPath2)"/>
<path fill="none" d="M449.1973 747.4626 L134.4774 728.1821" clip-path="url(#clipPath2)"/>
<path fill="none" d="M39.82 902.8092 L218.5135 914.806" clip-path="url(#clipPath2)"/>
<path fill="none" d="M247.5073 578.3798 L129.2843 715.8906" clip-path="url(#clipPath2)"/>
<path fill="none" d="M272.2609 566.1358 L514.263 552.0793" clip-path="url(#clipPath2)"/>
<path fill="none" d="M618.992 298.9571 L534.2661 537.0775" clip-path="url(#clipPath2)"/>
<path fill="none" d="M647.6485 349.6932 L536.837 538.277" clip-path="url(#clipPath2)"/>
<path fill="none" d="M557.032 313.0147 L530.9763 536.3107" clip-path="url(#clipPath2)"/>
<path fill="none" d="M323.5555 691.993 L516.8597 559.682" stroke-width="3.9752" clip-path="url(#clipPath2)"/>
<path fill="none" d="M296.3219 702.5425 L134.361 725.1878" clip-path="url(#clipPath2)"/>
<path fill="none" d="M290.1945 619.2652 L132.1812 719.2446" clip-path="url(#clipPath2)"/>
<path fill="none" d="M317.369 607.3997 L514.739 555.0548" clip-path="url(#clipPath2)"/>
<path fill="none" d="M245.782 508.7804 L514.4031 548.989" clip-path="url(#clipPath2)"/>
<path fill="none" d="M224.1862 519.9497 L126.2665 713.875" clip-path="url(#clipPath2)"/>
<path fill="none" d="M216.2336 509.4767 L31.2137 546.1561" clip-path="url(#clipPath2)"/>
<path fill="none" d="M335.8243 321.6922 L519.5718 539.7393" clip-path="url(#clipPath2)"/>
<path fill="none" d="M326.2256 384.1767 L517.6545 541.6792" clip-path="url(#clipPath2)"/>
<path fill="none" d="M764.4905 563.246 L544.2182 551.976" stroke-width="2.4463" clip-path="url(#clipPath2)"/>
<path fill="none" d="M410.5913 367.8554 L521.0887 538.6162" stroke-width="2.4463" clip-path="url(#clipPath2)"/>
<path fill="none" d="M708.8321 607.5666 L543.5497 555.7007" stroke-width="1.2231" clip-path="url(#clipPath2)"/>
<path fill="none" d="M371.6835 430.8574 L517.3176 542.1041" stroke-width="2.4463" clip-path="url(#clipPath2)"/>
<path fill="none" d="M693.0718 522.5554 L544.0135 548.6253" clip-path="url(#clipPath2)"/>
<path fill="none" d="M383.1862 487.5711 L515.4865 545.2178" stroke-width="5.81" clip-path="url(#clipPath2)"/>
<path fill="none" d="M623.6576 471.2597 L540.6852 541.5165" clip-path="url(#clipPath2)"/>
<path fill="none" d="M424.7397 580.2469 L514.7854 555.2255" clip-path="url(#clipPath2)"/>
<path fill="none" d="M573.5334 406.6803 L533.6332 536.868" clip-path="url(#clipPath2)"/>
<path fill="none" d="M540.5889 827.9009 L529.8527 566.197" stroke-width="5.81" clip-path="url(#clipPath2)"/>
<path fill="none" d="M554.7888 849.248 L723.176 928.0775" clip-path="url(#clipPath2)"/>
<path fill="none" d="M526.6079 846.3471 L248.0756 912.3519" clip-path="url(#clipPath2)"/>
<path fill="none" d="M721.4863 703.4292 L540.9978 560.521" stroke-width="7.0331" clip-path="url(#clipPath2)"/>
<path fill="none" d="M733.484 727.7388 L736.5233 919.4391" stroke-width="1.2231" clip-path="url(#clipPath2)"/>
<path fill="none" d="M419.1605 655.3356 L518.3407 561.5175" stroke-width="5.1984" clip-path="url(#clipPath2)"/>
<path fill="none" d="M617.9113 821.1514 L725.9034 924.0879" stroke-width="2.7521" clip-path="url(#clipPath2)"/>
<path fill="none" d="M602.7465 796.4337 L533.5449 565.5779" stroke-width="7.3389" clip-path="url(#clipPath2)"/>
<path fill="none" d="M601.809 824.8553 L551.9126 958.5583" clip-path="url(#clipPath2)"/>
<path fill="none" d="M629.5562 612.6062 L542.0319 559.0398" clip-path="url(#clipPath2)"/>
<path fill="none" d="M1040.0525 895.8303 L972.5944 754.0311" clip-path="url(#clipPath2)"/>
<path fill="none" d="M688.3387 738.268 L538.9561 562.6356" clip-path="url(#clipPath2)"/>
<path fill="none" d="M701.1328 764.3753 L733.6853 919.756" clip-path="url(#clipPath2)"/>
<path fill="none" d="M1135.8181 791.3054 L980.5198 744.7897" clip-path="url(#clipPath2)"/>
<path fill="none" d="M1193.3344 680.0486 L997.4246 620.9459" stroke-width="1.8347" clip-path="url(#clipPath2)"/>
<path fill="none" d="M484.2226 442.3221 L523.507 537.3475" stroke-width="3.3637" clip-path="url(#clipPath2)"/>
<path fill="none" d="M491.5264 819.4105 L360.9024 856.6258" clip-path="url(#clipPath2)"/>
<path fill="none" d="M519.2814 822.1806 L723.432 927.5572" stroke-width="1.8347" clip-path="url(#clipPath2)"/>
<path fill="none" d="M507.2698 800.3585 L527.9203 566.1516" stroke-width="9.4794" clip-path="url(#clipPath2)"/>
<path fill="none" d="M649.7621 759.0785 L730.0946 921.0001" stroke-width="2.1405" clip-path="url(#clipPath2)"/>
<path fill="none" d="M635.5157 732.6973 L536.8177 564.1535" stroke-width="4.8926" clip-path="url(#clipPath2)"/>
<path fill="none" d="M279.0443 487.0834 L20.9117 450.5966" stroke-width="1.8347" clip-path="url(#clipPath2)"/>
<path fill="none" d="M308.4013 493.0056 L514.7331 547.3867" clip-path="url(#clipPath2)"/>
<path fill="none" d="M893.0403 935.4749 L751.7607 934.5369" clip-path="url(#clipPath2)"/>
<path fill="none" d="M551.7288 655.7619 L532.3924 565.8741" stroke-width="2.1405" clip-path="url(#clipPath2)"/>
<path fill="none" d="M486.4172 348.4147 L526.1389 536.5332" stroke-width="15.2894" clip-path="url(#clipPath2)"/>
<path fill="none" d="M813.5574 650.2583 L543.4028 556.1443" stroke-width="3.3637" clip-path="url(#clipPath2)"/>
<path fill="none" d="M823.0767 669.4554 L741.4069 920.1749" clip-path="url(#clipPath2)"/>
<path fill="none" d="M840.493 663.0616 L953.38 732.6172" clip-path="url(#clipPath2)"/>
<path fill="none" d="M842.2803 651.5775 L968.5062 620.2289" clip-path="url(#clipPath2)"/>
<path fill="none" d="M439.5276 783.1128 L523.826 565.1993" stroke-width="16.5125" clip-path="url(#clipPath2)"/>
<path fill="none" d="M442.2132 809.7292 L538.5707 959.985" clip-path="url(#clipPath2)"/>
</g>
<g fill="rgb(251,180,174)" transform="matrix(1,0,0,1,27,-259)" stroke="rgb(251,180,174)">
<circle r="15" clip-path="url(#clipPath2)" cx="434.1158" cy="797.1025" stroke="none"/>
</g>
<g stroke-miterlimit="1.45" font-family="sans-serif" transform="matrix(1,0,0,1,27,-259)" stroke-linecap="butt">
<text x="402.6158" xml:space="preserve" y="801.6377" clip-path="url(#clipPath2)" stroke="none">Arrowhead</text>
<circle fill="none" r="15" clip-path="url(#clipPath2)" cx="434.1158" cy="797.1025" stroke="rgb(51,51,51)"/>
</g>
<g fill="rgb(204,235,197)" transform="matrix(1,0,0,1,27,-259)" stroke="rgb(204,235,197)">
<circle r="15" clip-path="url(#clipPath2)" cx="529.2378" cy="551.2096" stroke="none"/>
</g>
<g stroke-miterlimit="1.45" font-family="sans-serif" transform="matrix(1,0,0,1,27,-259)" stroke-linecap="butt">
<text x="508.7378" xml:space="preserve" y="555.7448" clip-path="url(#clipPath2)" stroke="none">bronze</text>
<circle fill="none" r="15" clip-path="url(#clipPath2)" cx="529.2378" cy="551.2096" stroke="rgb(51,51,51)"/>
</g>
<g fill="rgb(204,235,197)" transform="matrix(1,0,0,1,27,-259)" stroke="rgb(204,235,197)">
<circle r="15" clip-path="url(#clipPath2)" cx="546.668" cy="972.6116" stroke="none"/>
</g>
<g stroke-miterlimit="1.45" font-family="sans-serif" transform="matrix(1,0,0,1,27,-259)" stroke-linecap="butt">
<text x="533.668" xml:space="preserve" y="977.1468" clip-path="url(#clipPath2)" stroke="none">horn</text>
<circle fill="none" r="15" clip-path="url(#clipPath2)" cx="546.668" cy="972.6116" stroke="rgb(51,51,51)"/>
</g>
<g fill="rgb(251,180,174)" transform="matrix(1,0,0,1,27,-259)" stroke="rgb(251,180,174)">
<circle r="15" clip-path="url(#clipPath2)" cx="827.7225" cy="655.193" stroke="none"/>
</g>
<g stroke-miterlimit="1.45" font-family="sans-serif" transform="matrix(1,0,0,1,27,-259)" stroke-linecap="butt">
<text x="816.7225" xml:space="preserve" y="659.7281" clip-path="url(#clipPath2)" stroke="none">Axe</text>
<circle fill="none" r="15" clip-path="url(#clipPath2)" cx="827.7225" cy="655.193" stroke="rgb(51,51,51)"/>
</g>
<g fill="rgb(204,235,197)" transform="matrix(1,0,0,1,27,-259)" stroke="rgb(204,235,197)">
<circle r="15" clip-path="url(#clipPath2)" cx="983.0639" cy="616.6134" stroke="none"/>
</g>
<g stroke-miterlimit="1.45" font-family="sans-serif" transform="matrix(1,0,0,1,27,-259)" stroke-linecap="butt">
<text x="967.5639" xml:space="preserve" y="621.1486" clip-path="url(#clipPath2)" stroke="none">stone</text>
<circle fill="none" r="15" clip-path="url(#clipPath2)" cx="983.0639" cy="616.6134" stroke="rgb(51,51,51)"/>
</g>
<g fill="rgb(204,235,197)" transform="matrix(1,0,0,1,27,-259)" stroke="rgb(204,235,197)">
<circle r="15" clip-path="url(#clipPath2)" cx="966.1505" cy="740.4858" stroke="none"/>
</g>
<g stroke-miterlimit="1.45" font-family="sans-serif" transform="matrix(1,0,0,1,27,-259)" stroke-linecap="butt">
<text x="953.1505" xml:space="preserve" y="745.0209" clip-path="url(#clipPath2)" stroke="none">silex</text>
<circle fill="none" r="15" clip-path="url(#clipPath2)" cx="966.1505" cy="740.4858" stroke="rgb(51,51,51)"/>
</g>
<g fill="rgb(204,235,197)" transform="matrix(1,0,0,1,27,-259)" stroke="rgb(204,235,197)">
<circle r="15" clip-path="url(#clipPath2)" cx="736.7611" cy="934.4373" stroke="none"/>
</g>
<g stroke-miterlimit="1.45" font-family="sans-serif" transform="matrix(1,0,0,1,27,-259)" stroke-linecap="butt">
<text x="725.761" xml:space="preserve" y="938.9724" clip-path="url(#clipPath2)" stroke="none">iron</text>
<circle fill="none" r="15" clip-path="url(#clipPath2)" cx="736.7611" cy="934.4373" stroke="rgb(51,51,51)"/>
</g>
<g fill="rgb(251,180,174)" transform="matrix(1,0,0,1,27,-259)" stroke="rgb(251,180,174)">
<circle r="15" clip-path="url(#clipPath2)" cx="483.3183" cy="333.7383" stroke="none"/>
</g>
<g stroke-miterlimit="1.45" font-family="sans-serif" transform="matrix(1,0,0,1,27,-259)" stroke-linecap="butt">
<text x="465.3183" xml:space="preserve" y="338.2735" clip-path="url(#clipPath2)" stroke="none">Button</text>
<circle fill="none" r="15" clip-path="url(#clipPath2)" cx="483.3183" cy="333.7383" stroke="rgb(51,51,51)"/>
</g>
<g fill="rgb(251,180,174)" transform="matrix(1,0,0,1,27,-259)" stroke="rgb(251,180,174)">
<circle r="15" clip-path="url(#clipPath2)" cx="554.8834" cy="670.4264" stroke="none"/>
</g>
<g stroke-miterlimit="1.45" font-family="sans-serif" transform="matrix(1,0,0,1,27,-259)" stroke-linecap="butt">
<text x="536.3834" xml:space="preserve" y="674.9616" clip-path="url(#clipPath2)" stroke="none">Chape</text>
<circle fill="none" r="15" clip-path="url(#clipPath2)" cx="554.8834" cy="670.4264" stroke="rgb(51,51,51)"/>
</g>
<g fill="rgb(251,180,174)" transform="matrix(1,0,0,1,27,-259)" stroke="rgb(251,180,174)">
<circle r="15" clip-path="url(#clipPath2)" cx="908.0399" cy="935.5745" stroke="none"/>
</g>
<g stroke-miterlimit="1.45" font-family="sans-serif" transform="matrix(1,0,0,1,27,-259)" stroke-linecap="butt">
<text x="887.0399" xml:space="preserve" y="940.1096" clip-path="url(#clipPath2)" stroke="none">Dagger</text>
<circle fill="none" r="15" clip-path="url(#clipPath2)" cx="908.0399" cy="935.5745" stroke="rgb(51,51,51)"/>
</g>
<g fill="rgb(251,180,174)" transform="matrix(1,0,0,1,27,-259)" stroke="rgb(251,180,174)">
<circle r="15" clip-path="url(#clipPath2)" cx="293.8966" cy="489.1827" stroke="none"/>
</g>
<g stroke-miterlimit="1.45" font-family="sans-serif" transform="matrix(1,0,0,1,27,-259)" stroke-linecap="butt">
<text x="274.8966" xml:space="preserve" y="493.7179" clip-path="url(#clipPath2)" stroke="none">Sheath</text>
<circle fill="none" r="15" clip-path="url(#clipPath2)" cx="293.8966" cy="489.1827" stroke="rgb(51,51,51)"/>
</g>
<g fill="rgb(204,235,197)" transform="matrix(1,0,0,1,27,-259)" stroke="rgb(204,235,197)">
<circle r="15" clip-path="url(#clipPath2)" cx="6.0594" cy="448.4973" stroke="none"/>
</g>
<g stroke-miterlimit="1.45" font-family="sans-serif" transform="matrix(1,0,0,1,27,-259)" stroke-linecap="butt">
<text x="-14.9406" xml:space="preserve" y="453.0324" clip-path="url(#clipPath2)" stroke="none">organic</text>
<circle fill="none" r="15" clip-path="url(#clipPath2)" cx="6.0594" cy="448.4973" stroke="rgb(51,51,51)"/>
</g>
<g fill="rgb(251,180,174)" transform="matrix(1,0,0,1,27,-259)" stroke="rgb(251,180,174)">
<circle r="15" clip-path="url(#clipPath2)" cx="643.0956" cy="745.6413" stroke="none"/>
</g>
<g stroke-miterlimit="1.45" font-family="sans-serif" transform="matrix(1,0,0,1,27,-259)" stroke-linecap="butt">
<text x="612.0956" xml:space="preserve" y="750.1765" clip-path="url(#clipPath2)" stroke="none">Spearhead</text>
<circle fill="none" r="15" clip-path="url(#clipPath2)" cx="643.0956" cy="745.6413" stroke="rgb(51,51,51)"/>
</g>
<g fill="rgb(251,180,174)" transform="matrix(1,0,0,1,27,-259)" stroke="rgb(251,180,174)">
<circle r="15" clip-path="url(#clipPath2)" cx="505.9524" cy="815.3005" stroke="none"/>
</g>
<g stroke-miterlimit="1.45" font-family="sans-serif" transform="matrix(1,0,0,1,27,-259)" stroke-linecap="butt">
<text x="488.4524" xml:space="preserve" y="819.8357" clip-path="url(#clipPath2)" stroke="none">Sword</text>
<circle fill="none" r="15" clip-path="url(#clipPath2)" cx="505.9524" cy="815.3005" stroke="rgb(51,51,51)"/>
</g>
<g fill="rgb(204,235,197)" transform="matrix(1,0,0,1,27,-259)" stroke="rgb(204,235,197)">
<circle r="15" clip-path="url(#clipPath2)" cx="346.4765" cy="860.7358" stroke="none"/>
</g>
<g stroke-miterlimit="1.45" font-family="sans-serif" transform="matrix(1,0,0,1,27,-259)" stroke-linecap="butt">
<text x="332.9765" xml:space="preserve" y="865.271" clip-path="url(#clipPath2)" stroke="none">ivory</text>
<circle fill="none" r="15" clip-path="url(#clipPath2)" cx="346.4765" cy="860.7358" stroke="rgb(51,51,51)"/>
</g>
<g fill="rgb(251,180,174)" transform="matrix(1,0,0,1,27,-259)" stroke="rgb(251,180,174)">
<circle r="15" clip-path="url(#clipPath2)" cx="478.4919" cy="428.46" stroke="none"/>
</g>
<g stroke-miterlimit="1.45" font-family="sans-serif" transform="matrix(1,0,0,1,27,-259)" stroke-linecap="butt">
<text x="458.9919" xml:space="preserve" y="432.9952" clip-path="url(#clipPath2)" stroke="none">Toggle</text>
<circle fill="none" r="15" clip-path="url(#clipPath2)" cx="478.4919" cy="428.46" stroke="rgb(51,51,51)"/>
</g>
<g fill="rgb(251,180,174)" transform="matrix(1,0,0,1,27,-259)" stroke="rgb(251,180,174)">
<circle r="15" clip-path="url(#clipPath2)" cx="1207.695" cy="684.381" stroke="none"/>
</g>
<g stroke-miterlimit="1.45" font-family="sans-serif" transform="matrix(1,0,0,1,27,-259)" stroke-linecap="butt">
<text x="1178.1951" xml:space="preserve" y="688.9162" clip-path="url(#clipPath2)" stroke="none">Whetstone</text>
<circle fill="none" r="15" clip-path="url(#clipPath2)" cx="1207.695" cy="684.381" stroke="rgb(51,51,51)"/>
</g>
<g fill="rgb(251,180,174)" transform="matrix(1,0,0,1,27,-259)" stroke="rgb(251,180,174)">
<circle r="15" clip-path="url(#clipPath2)" cx="1150.1874" cy="795.6093" stroke="none"/>
</g>
<g stroke-miterlimit="1.45" font-family="sans-serif" transform="matrix(1,0,0,1,27,-259)" stroke-linecap="butt">
<text x="1134.1874" xml:space="preserve" y="800.1445" clip-path="url(#clipPath2)" stroke="none">Blade</text>
<circle fill="none" r="15" clip-path="url(#clipPath2)" cx="1150.1874" cy="795.6093" stroke="rgb(51,51,51)"/>
</g>
<g fill="rgb(251,180,174)" transform="matrix(1,0,0,1,27,-259)" stroke="rgb(251,180,174)">
<circle r="15" clip-path="url(#clipPath2)" cx="698.0571" cy="749.694" stroke="none"/>
</g>
<g stroke-miterlimit="1.45" font-family="sans-serif" transform="matrix(1,0,0,1,27,-259)" stroke-linecap="butt">
<text x="681.0571" xml:space="preserve" y="754.2292" clip-path="url(#clipPath2)" stroke="none">Chisel</text>
<circle fill="none" r="15" clip-path="url(#clipPath2)" cx="698.0571" cy="749.694" stroke="rgb(51,51,51)"/>
</g>
<g fill="rgb(251,180,174)" transform="matrix(1,0,0,1,27,-259)" stroke="rgb(251,180,174)">
<circle r="15" clip-path="url(#clipPath2)" cx="1046.4964" cy="909.3756" stroke="none"/>
</g>
<g stroke-miterlimit="1.45" font-family="sans-serif" transform="matrix(1,0,0,1,27,-259)" stroke-linecap="butt">
<text x="1031.4965" xml:space="preserve" y="913.9108" clip-path="url(#clipPath2)" stroke="none">Flake</text>
<circle fill="none" r="15" clip-path="url(#clipPath2)" cx="1046.4964" cy="909.3756" stroke="rgb(51,51,51)"/>
</g>
<g fill="rgb(251,180,174)" transform="matrix(1,0,0,1,27,-259)" stroke="rgb(251,180,174)">
<circle r="15" clip-path="url(#clipPath2)" cx="642.3502" cy="620.4364" stroke="none"/>
</g>
<g stroke-miterlimit="1.45" font-family="sans-serif" transform="matrix(1,0,0,1,27,-259)" stroke-linecap="butt">
<text x="628.3502" xml:space="preserve" y="624.9716" clip-path="url(#clipPath2)" stroke="none">Ingot</text>
<circle fill="none" r="15" clip-path="url(#clipPath2)" cx="642.3502" cy="620.4364" stroke="rgb(51,51,51)"/>
</g>
<g fill="rgb(251,180,174)" transform="matrix(1,0,0,1,27,-259)" stroke="rgb(251,180,174)">
<circle r="15" clip-path="url(#clipPath2)" cx="607.0536" cy="810.802" stroke="none"/>
</g>
<g stroke-miterlimit="1.45" font-family="sans-serif" transform="matrix(1,0,0,1,27,-259)" stroke-linecap="butt">
<text x="592.5536" xml:space="preserve" y="815.3372" clip-path="url(#clipPath2)" stroke="none">Knife</text>
<circle fill="none" r="15" clip-path="url(#clipPath2)" cx="607.0536" cy="810.802" stroke="rgb(51,51,51)"/>
</g>
<g fill="rgb(251,180,174)" transform="matrix(1,0,0,1,27,-259)" stroke="rgb(251,180,174)">
<circle r="15" clip-path="url(#clipPath2)" cx="408.2634" cy="665.6435" stroke="none"/>
</g>
<g stroke-miterlimit="1.45" font-family="sans-serif" transform="matrix(1,0,0,1,27,-259)" stroke-linecap="butt">
<text x="401.2634" xml:space="preserve" y="670.1787" clip-path="url(#clipPath2)" stroke="none">Bit</text>
<circle fill="none" r="15" clip-path="url(#clipPath2)" cx="408.2634" cy="665.6435" stroke="rgb(51,51,51)"/>
</g>
<g fill="rgb(251,180,174)" transform="matrix(1,0,0,1,27,-259)" stroke="rgb(251,180,174)">
<circle r="15" clip-path="url(#clipPath2)" cx="733.2463" cy="712.7406" stroke="none"/>
</g>
<g stroke-miterlimit="1.45" font-family="sans-serif" transform="matrix(1,0,0,1,27,-259)" stroke-linecap="butt">
<text x="711.7463" xml:space="preserve" y="717.2758" clip-path="url(#clipPath2)" stroke="none">Phalera</text>
<circle fill="none" r="15" clip-path="url(#clipPath2)" cx="733.2463" cy="712.7406" stroke="rgb(51,51,51)"/>
</g>
<g fill="rgb(251,180,174)" transform="matrix(1,0,0,1,27,-259)" stroke="rgb(251,180,174)">
<circle r="15" clip-path="url(#clipPath2)" cx="541.2037" cy="842.8883" stroke="none"/>
</g>
<g stroke-miterlimit="1.45" font-family="sans-serif" transform="matrix(1,0,0,1,27,-259)" stroke-linecap="butt">
<text x="524.2037" xml:space="preserve" y="847.4235" clip-path="url(#clipPath2)" stroke="none">Shank</text>
<circle fill="none" r="15" clip-path="url(#clipPath2)" cx="541.2037" cy="842.8883" stroke="rgb(51,51,51)"/>
</g>
<g fill="rgb(204,235,197)" transform="matrix(1,0,0,1,27,-259)" stroke="rgb(204,235,197)">
<circle r="15" clip-path="url(#clipPath2)" cx="233.4798" cy="915.8107" stroke="none"/>
</g>
<g stroke-miterlimit="1.45" font-family="sans-serif" transform="matrix(1,0,0,1,27,-259)" stroke-linecap="butt">
<text x="218.9798" xml:space="preserve" y="920.3459" clip-path="url(#clipPath2)" stroke="none">bone</text>
<circle fill="none" r="15" clip-path="url(#clipPath2)" cx="233.4798" cy="915.8107" stroke="rgb(51,51,51)"/>
</g>
<g fill="rgb(251,180,174)" transform="matrix(1,0,0,1,27,-259)" stroke="rgb(251,180,174)">
<circle r="15" clip-path="url(#clipPath2)" cx="577.9288" cy="392.3387" stroke="none"/>
</g>
<g stroke-miterlimit="1.45" font-family="sans-serif" transform="matrix(1,0,0,1,27,-259)" stroke-linecap="butt">
<text x="559.9288" xml:space="preserve" y="396.8739" clip-path="url(#clipPath2)" stroke="none">Terret</text>
<circle fill="none" r="15" clip-path="url(#clipPath2)" cx="577.9288" cy="392.3387" stroke="rgb(51,51,51)"/>
</g>
<g fill="rgb(251,180,174)" transform="matrix(1,0,0,1,27,-259)" stroke="rgb(251,180,174)">
<circle r="15" clip-path="url(#clipPath2)" cx="410.2873" cy="584.2629" stroke="none"/>
</g>
<g stroke-miterlimit="1.45" font-family="sans-serif" transform="matrix(1,0,0,1,27,-259)" stroke-linecap="butt">
<text x="395.2873" xml:space="preserve" y="588.798" clip-path="url(#clipPath2)" stroke="none">Tube</text>
<circle fill="none" r="15" clip-path="url(#clipPath2)" cx="410.2873" cy="584.2629" stroke="rgb(51,51,51)"/>
</g>
<g fill="rgb(251,180,174)" transform="matrix(1,0,0,1,27,-259)" stroke="rgb(251,180,174)">
<circle r="15" clip-path="url(#clipPath2)" cx="635.105" cy="461.5666" stroke="none"/>
</g>
<g stroke-miterlimit="1.45" font-family="sans-serif" transform="matrix(1,0,0,1,27,-259)" stroke-linecap="butt">
<text x="616.605" xml:space="preserve" y="466.1018" clip-path="url(#clipPath2)" stroke="none">Clamp</text>
<circle fill="none" r="15" clip-path="url(#clipPath2)" cx="635.105" cy="461.5666" stroke="rgb(51,51,51)"/>
</g>
<g fill="rgb(251,180,174)" transform="matrix(1,0,0,1,27,-259)" stroke="rgb(251,180,174)">
<circle r="15" clip-path="url(#clipPath2)" cx="369.4349" cy="481.5793" stroke="none"/>
</g>
<g stroke-miterlimit="1.45" font-family="sans-serif" transform="matrix(1,0,0,1,27,-259)" stroke-linecap="butt">
<text x="349.4349" xml:space="preserve" y="486.1145" clip-path="url(#clipPath2)" stroke="none">Fittings</text>
<circle fill="none" r="15" clip-path="url(#clipPath2)" cx="369.4349" cy="481.5793" stroke="rgb(51,51,51)"/>
</g>
<g fill="rgb(251,180,174)" transform="matrix(1,0,0,1,27,-259)" stroke="rgb(251,180,174)">
<circle r="15" clip-path="url(#clipPath2)" cx="707.8476" cy="519.9711" stroke="none"/>
</g>
<g stroke-miterlimit="1.45" font-family="sans-serif" transform="matrix(1,0,0,1,27,-259)" stroke-linecap="butt">
<text x="689.8476" xml:space="preserve" y="524.5062" clip-path="url(#clipPath2)" stroke="none">Sleeve</text>
<circle fill="none" r="15" clip-path="url(#clipPath2)" cx="707.8476" cy="519.9711" stroke="rgb(51,51,51)"/>
</g>
<g fill="rgb(251,180,174)" transform="matrix(1,0,0,1,27,-259)" stroke="rgb(251,180,174)">
<circle r="15" clip-path="url(#clipPath2)" cx="359.7633" cy="421.7519" stroke="none"/>
</g>
<g stroke-miterlimit="1.45" font-family="sans-serif" transform="matrix(1,0,0,1,27,-259)" stroke-linecap="butt">
<text x="341.2633" xml:space="preserve" y="426.287" clip-path="url(#clipPath2)" stroke="none">Socket</text>
<circle fill="none" r="15" clip-path="url(#clipPath2)" cx="359.7633" cy="421.7519" stroke="rgb(51,51,51)"/>
</g>
<g fill="rgb(251,180,174)" transform="matrix(1,0,0,1,27,-259)" stroke="rgb(251,180,174)">
<circle r="15" clip-path="url(#clipPath2)" cx="723.144" cy="612.0577" stroke="none"/>
</g>
<g stroke-miterlimit="1.45" font-family="sans-serif" transform="matrix(1,0,0,1,27,-259)" stroke-linecap="butt">
<text x="707.644" xml:space="preserve" y="616.5928" clip-path="url(#clipPath2)" stroke="none">Spool</text>
<circle fill="none" r="15" clip-path="url(#clipPath2)" cx="723.144" cy="612.0577" stroke="rgb(51,51,51)"/>
</g>
<g fill="rgb(251,180,174)" transform="matrix(1,0,0,1,27,-259)" stroke="rgb(251,180,174)">
<circle r="15" clip-path="url(#clipPath2)" cx="402.4423" cy="355.262" stroke="none"/>
</g>
<g stroke-miterlimit="1.45" font-family="sans-serif" transform="matrix(1,0,0,1,27,-259)" stroke-linecap="butt">
<text x="392.4423" xml:space="preserve" y="359.7971" clip-path="url(#clipPath2)" stroke="none">Awl</text>
<circle fill="none" r="15" clip-path="url(#clipPath2)" cx="402.4423" cy="355.262" stroke="rgb(51,51,51)"/>
</g>
<g fill="rgb(251,180,174)" transform="matrix(1,0,0,1,27,-259)" stroke="rgb(251,180,174)">
<circle r="15" clip-path="url(#clipPath2)" cx="779.4709" cy="564.0125" stroke="none"/>
</g>
<g stroke-miterlimit="1.45" font-family="sans-serif" transform="matrix(1,0,0,1,27,-259)" stroke-linecap="butt">
<text x="762.4709" xml:space="preserve" y="568.5477" clip-path="url(#clipPath2)" stroke="none">Razor</text>
<circle fill="none" r="15" clip-path="url(#clipPath2)" cx="779.4709" cy="564.0125" stroke="rgb(51,51,51)"/>
</g>
<g fill="rgb(251,180,174)" transform="matrix(1,0,0,1,27,-259)" stroke="rgb(251,180,174)">
<circle r="15" clip-path="url(#clipPath2)" cx="314.6423" cy="374.6463" stroke="none"/>
</g>
<g stroke-miterlimit="1.45" font-family="sans-serif" transform="matrix(1,0,0,1,27,-259)" stroke-linecap="butt">
<text x="298.6423" xml:space="preserve" y="379.1814" clip-path="url(#clipPath2)" stroke="none">Sickle</text>
<circle fill="none" r="15" clip-path="url(#clipPath2)" cx="314.6423" cy="374.6463" stroke="rgb(51,51,51)"/>
</g>
<g fill="rgb(251,180,174)" transform="matrix(1,0,0,1,27,-259)" stroke="rgb(251,180,174)">
<circle r="15" clip-path="url(#clipPath2)" cx="326.1583" cy="310.2219" stroke="none"/>
</g>
<g stroke-miterlimit="1.45" font-family="sans-serif" transform="matrix(1,0,0,1,27,-259)" stroke-linecap="butt">
<text x="298.1583" xml:space="preserve" y="314.757" clip-path="url(#clipPath2)" stroke="none">Tweezers</text>
<circle fill="none" r="15" clip-path="url(#clipPath2)" cx="326.1583" cy="310.2219" stroke="rgb(51,51,51)"/>
</g>
<g fill="rgb(251,180,174)" transform="matrix(1,0,0,1,27,-259)" stroke="rgb(251,180,174)">
<circle r="15" clip-path="url(#clipPath2)" cx="230.9472" cy="506.5598" stroke="none"/>
</g>
<g stroke-miterlimit="1.45" font-family="sans-serif" transform="matrix(1,0,0,1,27,-259)" stroke-linecap="butt">
<text x="216.4472" xml:space="preserve" y="511.095" clip-path="url(#clipPath2)" stroke="none">Bead</text>
<circle fill="none" r="15" clip-path="url(#clipPath2)" cx="230.9472" cy="506.5598" stroke="rgb(51,51,51)"/>
</g>
<g fill="rgb(204,235,197)" transform="matrix(1,0,0,1,27,-259)" stroke="rgb(204,235,197)">
<circle r="15" clip-path="url(#clipPath2)" cx="119.5055" cy="727.2649" stroke="none"/>
</g>
<g stroke-miterlimit="1.45" font-family="sans-serif" transform="matrix(1,0,0,1,27,-259)" stroke-linecap="butt">
<text x="107.0055" xml:space="preserve" y="731.8" clip-path="url(#clipPath2)" stroke="none">gold</text>
<circle fill="none" r="15" clip-path="url(#clipPath2)" cx="119.5055" cy="727.2649" stroke="rgb(51,51,51)"/>
</g>
<g fill="rgb(204,235,197)" transform="matrix(1,0,0,1,27,-259)" stroke="rgb(204,235,197)">
<circle r="15" clip-path="url(#clipPath2)" cx="16.5" cy="549.0729" stroke="none"/>
</g>
<g stroke-miterlimit="1.45" font-family="sans-serif" transform="matrix(1,0,0,1,27,-259)" stroke-linecap="butt">
<text x="2" xml:space="preserve" y="553.6081" clip-path="url(#clipPath2)" stroke="none">glass</text>
<circle fill="none" r="15" clip-path="url(#clipPath2)" cx="16.5" cy="549.0729" stroke="rgb(51,51,51)"/>
</g>
<g fill="rgb(251,180,174)" transform="matrix(1,0,0,1,27,-259)" stroke="rgb(251,180,174)">
<circle r="15" clip-path="url(#clipPath2)" cx="302.8703" cy="611.2449" stroke="none"/>
</g>
<g stroke-miterlimit="1.45" font-family="sans-serif" transform="matrix(1,0,0,1,27,-259)" stroke-linecap="butt">
<text x="278.3703" xml:space="preserve" y="615.78" clip-path="url(#clipPath2)" stroke="none">BeltPlate</text>
<circle fill="none" r="15" clip-path="url(#clipPath2)" cx="302.8703" cy="611.2449" stroke="rgb(51,51,51)"/>
</g>
<g fill="rgb(251,180,174)" transform="matrix(1,0,0,1,27,-259)" stroke="rgb(251,180,174)">
<circle r="15" clip-path="url(#clipPath2)" cx="311.1774" cy="700.4655" stroke="none"/>
</g>
<g stroke-miterlimit="1.45" font-family="sans-serif" transform="matrix(1,0,0,1,27,-259)" stroke-linecap="butt">
<text x="288.1774" xml:space="preserve" y="705.0007" clip-path="url(#clipPath2)" stroke="none">Bracelet</text>
<circle fill="none" r="15" clip-path="url(#clipPath2)" cx="311.1774" cy="700.4655" stroke="rgb(51,51,51)"/>
</g>
<g fill="rgb(251,180,174)" transform="matrix(1,0,0,1,27,-259)" stroke="rgb(251,180,174)">
<circle r="15" clip-path="url(#clipPath2)" cx="558.7705" cy="298.1158" stroke="none"/>
</g>
<g stroke-miterlimit="1.45" font-family="sans-serif" transform="matrix(1,0,0,1,27,-259)" stroke-linecap="butt">
<text x="542.7705" xml:space="preserve" y="302.651" clip-path="url(#clipPath2)" stroke="none">Chain</text>
<circle fill="none" r="15" clip-path="url(#clipPath2)" cx="558.7705" cy="298.1158" stroke="rgb(51,51,51)"/>
</g>
<g fill="rgb(251,180,174)" transform="matrix(1,0,0,1,27,-259)" stroke="rgb(251,180,174)">
<circle r="15" clip-path="url(#clipPath2)" cx="655.2477" cy="336.7606" stroke="none"/>
</g>
<g stroke-miterlimit="1.45" font-family="sans-serif" transform="matrix(1,0,0,1,27,-259)" stroke-linecap="butt">
<text x="643.2477" xml:space="preserve" y="341.2958" clip-path="url(#clipPath2)" stroke="none">Disc</text>
<circle fill="none" r="15" clip-path="url(#clipPath2)" cx="655.2477" cy="336.7606" stroke="rgb(51,51,51)"/>
</g>
<g fill="rgb(251,180,174)" transform="matrix(1,0,0,1,27,-259)" stroke="rgb(251,180,174)">
<circle r="15" clip-path="url(#clipPath2)" cx="624.0204" cy="284.825" stroke="none"/>
</g>
<g stroke-miterlimit="1.45" font-family="sans-serif" transform="matrix(1,0,0,1,27,-259)" stroke-linecap="butt">
<text x="607.0204" xml:space="preserve" y="289.3602" clip-path="url(#clipPath2)" stroke="none">Fibula</text>
<circle fill="none" r="15" clip-path="url(#clipPath2)" cx="624.0204" cy="284.825" stroke="rgb(51,51,51)"/>
</g>
<g fill="rgb(251,180,174)" transform="matrix(1,0,0,1,27,-259)" stroke="rgb(251,180,174)">
<circle r="15" clip-path="url(#clipPath2)" cx="257.2861" cy="567.0056" stroke="none"/>
</g>
<g stroke-miterlimit="1.45" font-family="sans-serif" transform="matrix(1,0,0,1,27,-259)" stroke-linecap="butt">
<text x="231.2861" xml:space="preserve" y="571.5407" clip-path="url(#clipPath2)" stroke="none">Necklace</text>
<circle fill="none" r="15" clip-path="url(#clipPath2)" cx="257.2861" cy="567.0056" stroke="rgb(51,51,51)"/>
</g>
<g fill="rgb(251,180,174)" transform="matrix(1,0,0,1,27,-259)" stroke="rgb(251,180,174)">
<circle r="15" clip-path="url(#clipPath2)" cx="24.8537" cy="901.8044" stroke="none"/>
</g>
<g stroke-miterlimit="1.45" font-family="sans-serif" transform="matrix(1,0,0,1,27,-259)" stroke-linecap="butt">
<text x="-3.6463" xml:space="preserve" y="906.3395" clip-path="url(#clipPath2)" stroke="none">Ornament</text>
<circle fill="none" r="15" clip-path="url(#clipPath2)" cx="24.8537" cy="901.8044" stroke="rgb(51,51,51)"/>
</g>
<g fill="rgb(251,180,174)" transform="matrix(1,0,0,1,27,-259)" stroke="rgb(251,180,174)">
<circle r="15" clip-path="url(#clipPath2)" cx="464.1692" cy="748.3799" stroke="none"/>
</g>
<g stroke-miterlimit="1.45" font-family="sans-serif" transform="matrix(1,0,0,1,27,-259)" stroke-linecap="butt">
<text x="455.6693" xml:space="preserve" y="752.915" clip-path="url(#clipPath2)" stroke="none">Pin</text>
<circle fill="none" r="15" clip-path="url(#clipPath2)" cx="464.1692" cy="748.3799" stroke="rgb(51,51,51)"/>
</g>
<g fill="rgb(251,180,174)" transform="matrix(1,0,0,1,27,-259)" stroke="rgb(251,180,174)">
<circle r="15" clip-path="url(#clipPath2)" cx="803.3805" cy="531.5842" stroke="none"/>
</g>
<g stroke-miterlimit="1.45" font-family="sans-serif" transform="matrix(1,0,0,1,27,-259)" stroke-linecap="butt">
<text x="783.3806" xml:space="preserve" y="536.1194" clip-path="url(#clipPath2)" stroke="none">Pottery</text>
<circle fill="none" r="15" clip-path="url(#clipPath2)" cx="803.3805" cy="531.5842" stroke="rgb(51,51,51)"/>
</g>
<g fill="rgb(204,235,197)" transform="matrix(1,0,0,1,27,-259)" stroke="rgb(204,235,197)">
<circle r="15" clip-path="url(#clipPath2)" cx="994.3263" cy="517.1579" stroke="none"/>
</g>
<g stroke-miterlimit="1.45" font-family="sans-serif" transform="matrix(1,0,0,1,27,-259)" stroke-linecap="butt">
<text x="971.8263" xml:space="preserve" y="521.6931" clip-path="url(#clipPath2)" stroke="none">ceramic</text>
<circle fill="none" r="15" clip-path="url(#clipPath2)" cx="994.3263" cy="517.1579" stroke="rgb(51,51,51)"/>
</g>
<g fill="rgb(251,180,174)" transform="matrix(1,0,0,1,27,-259)" stroke="rgb(251,180,174)">
<circle r="15" clip-path="url(#clipPath2)" cx="787.141" cy="484.9407" stroke="none"/>
</g>
<g stroke-miterlimit="1.45" font-family="sans-serif" transform="matrix(1,0,0,1,27,-259)" stroke-linecap="butt">
<text x="768.641" xml:space="preserve" y="489.4758" clip-path="url(#clipPath2)" stroke="none">Vessel</text>
<circle fill="none" r="15" clip-path="url(#clipPath2)" cx="787.141" cy="484.9407" stroke="rgb(51,51,51)"/>
</g>
<g fill="rgb(251,180,174)" transform="matrix(1,0,0,1,27,-259)" stroke="rgb(251,180,174)">
<circle r="15" clip-path="url(#clipPath2)" cx="723.7757" cy="430.5797" stroke="none"/>
</g>
<g stroke-miterlimit="1.45" font-family="sans-serif" transform="matrix(1,0,0,1,27,-259)" stroke-linecap="butt">
<text x="712.7756" xml:space="preserve" y="435.1149" clip-path="url(#clipPath2)" stroke="none">Nail</text>
<circle fill="none" r="15" clip-path="url(#clipPath2)" cx="723.7757" cy="430.5797" stroke="rgb(51,51,51)"/>
</g>
<g fill="rgb(251,180,174)" transform="matrix(1,0,0,1,27,-259)" stroke="rgb(251,180,174)">
<circle r="15" clip-path="url(#clipPath2)" cx="712.981" cy="336.8122" stroke="none"/>
</g>
<g stroke-miterlimit="1.45" font-family="sans-serif" transform="matrix(1,0,0,1,27,-259)" stroke-linecap="butt">
<text x="700.481" xml:space="preserve" y="341.3474" clip-path="url(#clipPath2)" stroke="none">Ring</text>
<circle fill="none" r="15" clip-path="url(#clipPath2)" cx="712.981" cy="336.8122" stroke="rgb(51,51,51)"/>
</g>
<g fill="rgb(251,180,174)" transform="matrix(1,0,0,1,27,-259)" stroke="rgb(251,180,174)">
<circle r="15" clip-path="url(#clipPath2)" cx="763.3893" cy="393.3663" stroke="none"/>
</g>
<g stroke-miterlimit="1.45" font-family="sans-serif" transform="matrix(1,0,0,1,27,-259)" stroke-linecap="butt">
<text x="752.8893" xml:space="preserve" y="397.9015" clip-path="url(#clipPath2)" stroke="none">Roll</text>
<circle fill="none" r="15" clip-path="url(#clipPath2)" cx="763.3893" cy="393.3663" stroke="rgb(51,51,51)"/>
</g>
<g fill="rgb(251,180,174)" transform="matrix(1,0,0,1,27,-259)" stroke="rgb(251,180,174)">
<circle r="15" clip-path="url(#clipPath2)" cx="270.1907" cy="647.1994" stroke="none"/>
</g>
<g stroke-miterlimit="1.45" font-family="sans-serif" transform="matrix(1,0,0,1,27,-259)" stroke-linecap="butt">
<text x="254.1908" xml:space="preserve" y="651.7345" clip-path="url(#clipPath2)" stroke="none">Spiral</text>
<circle fill="none" r="15" clip-path="url(#clipPath2)" cx="270.1907" cy="647.1994" stroke="rgb(51,51,51)"/>
</g>
<g fill="rgb(251,180,174)" transform="matrix(1,0,0,1,27,-259)" stroke="rgb(251,180,174)">
<circle r="15" clip-path="url(#clipPath2)" cx="1135.9379" cy="483.1937" stroke="none"/>
</g>
<g stroke-miterlimit="1.45" font-family="sans-serif" transform="matrix(1,0,0,1,27,-259)" stroke-linecap="butt">
<text x="1120.4379" xml:space="preserve" y="487.7289" clip-path="url(#clipPath2)" stroke="none">Stone</text>
<circle fill="none" r="15" clip-path="url(#clipPath2)" cx="1135.9379" cy="483.1937" stroke="rgb(51,51,51)"/>
</g>
<g fill="rgb(251,180,174)" transform="matrix(1,0,0,1,27,-259)" stroke="rgb(251,180,174)">
<circle r="15" clip-path="url(#clipPath2)" cx="363.646" cy="785.165" stroke="none"/>
</g>
<g stroke-miterlimit="1.45" font-family="sans-serif" transform="matrix(1,0,0,1,27,-259)" stroke-linecap="butt">
<text x="351.146" xml:space="preserve" y="789.7001" clip-path="url(#clipPath2)" stroke="none">Wire</text>
<circle fill="none" r="15" clip-path="url(#clipPath2)" cx="363.646" cy="785.165" stroke="rgb(51,51,51)"/>
</g>
</g>
</svg>
